<svg xmlns="http://www.w3.org/2000/svg" width="24" height="24" fill="none" class="text-content-primary size-3xs" viewBox="0 0 16 16"><g clip-path="url(#a)"><path fill="currentColor" fill-rule="evenodd" d="M11.805 0c-1.263 0-2.331.357-3.083 1.109-.751.751-1.108 1.819-1.108 3.083 0 1.263.357 2.331 1.108 3.083.752.751 1.82 1.108 3.083 1.108s2.332-.357 3.083-1.108 1.109-1.82 1.109-3.083-.357-2.332-1.109-3.083C14.137.357 13.068 0 11.805 0m0 3.3c.474 0 .857.384.857.858v.068a.857.857 0 0 1-1.714 0v-.068c0-.474.384-.858.857-.858m1.58 7.501-3.081.731-1.819.453a3.1 3.1 0 0 1-1.37.029l-3.147-.643a.621.621 0 0 1 .244-1.218l1.393.273.048.009a1.347 1.347 0 0 0 .568-2.631l-2.63-.671a5.7 5.7 0 0 0-1.809-.164l-1.25.086a.571.571 0 0 0-.532.57v6c0 .242.153.458.38.539l3.79 1.341a8.63 8.63 0 0 0 6.128-.14l4.023-1.634a1.542 1.542 0 0 0-.937-2.93" clip-rule="evenodd"/></g><defs><clipPath id="a"><path fill="#fff" d="M0 0h16v16H0z"/></clipPath></defs></svg>