<svg xmlns="http://www.w3.org/2000/svg" width="24" height="24" fill="none" class="text-content-primary size-3xs" viewBox="0 0 16 16"><g clip-path="url(#a)"><path fill="currentColor" fill-rule="evenodd" d="M9.805 0C7.9 0 6.33.538 5.239 1.63s-1.63 2.66-1.63 4.565.538 3.474 1.63 4.566 2.66 1.63 4.566 1.63 3.473-.538 4.565-1.63S16 8.101 16 6.195s-.537-3.473-1.63-4.565S11.71 0 9.805 0m.139 2.052c.394 0 .714.32.714.715v.517a2.7 2.7 0 0 1 1.22.708l.013.013.005.005.002.002v.001s.001.001-.53.478l.531-.477a.714.714 0 0 1-1.057.961l-.004-.004-.042-.039a1.3 1.3 0 0 0-.198-.14 1.2 1.2 0 0 0-.71-.162c-.34.03-.528.14-.624.235a.43.43 0 0 0-.135.308c0 .108.022.145.026.15.003.007.017.028.074.06.15.086.385.136.793.212l.04.007c.335.062.816.15 1.206.38.221.13.436.315.59.581.155.267.224.569.224.891 0 .501-.272.894-.578 1.152a2.5 2.5 0 0 1-.846.454v.564a.714.714 0 1 1-1.428 0v-.46a2.83 2.83 0 0 1-1.47-.703.714.714 0 0 1 .963-1.055c.377.343.905.43 1.366.33.228-.051.397-.14.493-.22a.3.3 0 0 0 .071-.078c-.002-.105-.024-.146-.03-.157s-.023-.035-.078-.067c-.148-.087-.381-.14-.784-.215l-.056-.01c-.33-.06-.8-.147-1.181-.363a1.6 1.6 0 0 1-.595-.569 1.7 1.7 0 0 1-.228-.884c0-.869.584-1.602 1.529-1.87v-.536c0-.395.32-.715.714-.715M2.18 6.195q0-.774.107-1.508a5 5 0 0 0-.658.552C.538 6.331 0 7.899 0 9.805s.538 3.473 1.63 4.565S4.29 16 6.195 16s3.474-.537 4.566-1.63q.305-.305.552-.658-.735.107-1.508.107c-2.168 0-4.144-.615-5.576-2.048C2.796 10.34 2.18 8.363 2.18 6.195" clip-rule="evenodd"/></g><defs><clipPath id="a"><path fill="#fff" d="M0 0h16v16H0z"/></clipPath></defs></svg>