<svg xmlns="http://www.w3.org/2000/svg" width="24" height="24" fill="none" class="text-content-primary size-3xs" viewBox="0 0 16 16"><path fill="currentColor" fill-rule="evenodd" d="M1.333 6.857a6.857 6.857 0 1 1 13.715 0c0 2.226-1.279 4.263-2.611 5.795-1.346 1.547-2.827 2.67-3.396 3.079a1.455 1.455 0 0 1-.85.269 1.45 1.45 0 0 1-.851-.27 20.758 20.758 0 0 1-3.396-3.078c-1.332-1.532-2.61-3.57-2.61-5.795M8.905 3.43a.714.714 0 1 0-1.429 0v.447l-.015.002a2.4 2.4 0 0 0-.782.188c-.28.128-.529.337-.697.649-.16.298-.22.64-.22 1 0 .73.392 1.215.854 1.522.402.268.909.437 1.305.57l.044.013c.454.152.782.267 1.008.417.181.121.217.208.217.334 0 .212-.036.299-.048.322l-.002.002c-.004.008-.007.015-.036.028a1 1 0 0 1-.307.062A7 7 0 0 1 8.19 9c-.424 0-.705-.068-.856-.155a.3.3 0 0 1-.108-.095.34.34 0 0 1-.036-.179.714.714 0 0 0-1.428 0c0 .693.335 1.21.86 1.512.26.15.554.24.854.29v.484a.714.714 0 1 0 1.429 0v-.448l.015-.001c.242-.021.52-.067.782-.188.28-.129.529-.337.697-.649.16-.298.22-.64.22-1 0-.73-.392-1.215-.854-1.522-.402-.269-.909-.437-1.305-.57l-.044-.014c-.455-.151-.782-.266-1.008-.416-.181-.121-.218-.208-.218-.335 0-.211.037-.298.05-.322V5.39c.005-.008.008-.014.037-.027a1 1 0 0 1 .307-.062c.169-.015.362-.015.606-.015.377 0 .663.088.83.194.152.097.17.177.17.234a.714.714 0 1 0 1.43 0c0-.65-.366-1.142-.833-1.44a2.6 2.6 0 0 0-.882-.346z" clip-rule="evenodd"/></svg>