<svg xmlns="http://www.w3.org/2000/svg" width="24" height="24" fill="none" class="text-content-primary size-3xs" viewBox="0 0 16 16"><g clip-path="url(#a)"><path fill="currentColor" fill-rule="evenodd" d="M7.964.286h.072c1.84 0 3.84 0 5.517.328A2.38 2.38 0 0 1 15.41 2.44c.304 1.373.304 2.62.304 4.434v.086c0 1.814 0 3.061-.304 4.433a2.38 2.38 0 0 1-1.857 1.826l-.01.002.36 1.427a.857.857 0 0 1-1.663.418l-.408-1.62c-1.239.102-2.553.102-3.796.102h-.072c-1.243 0-2.558 0-3.797-.101l-.407 1.62a.857.857 0 1 1-1.663-.42l.36-1.426-.01-.002A2.38 2.38 0 0 1 .59 11.394C.286 10.021.286 8.773.286 6.96v-.086c0-1.814 0-3.061.304-4.434A2.38 2.38 0 0 1 2.447.614C4.125.286 6.123.286 7.964.286m1.842 3c.395 0 .715.32.715.714v.337c.423.12.803.343 1.11.642l.293-.17a.714.714 0 1 1 .714 1.238l-.292.168a2.6 2.6 0 0 1 0 1.284l.292.168a.714.714 0 0 1-.714 1.237l-.293-.168a2.6 2.6 0 0 1-1.11.642v.336a.714.714 0 0 1-1.43 0v-.336a2.6 2.6 0 0 1-1.11-.642l-.292.168a.714.714 0 1 1-.714-1.237l.291-.168a2.6 2.6 0 0 1 0-1.284l-.291-.168a.714.714 0 1 1 .714-1.237l.292.169a2.6 2.6 0 0 1 1.11-.642V4a.715.715 0 0 1 .715-.714m-1.039 2.99.008-.014.007-.013a1.19 1.19 0 0 1 2.05.004l.005.009.006.01a1.19 1.19 0 0 1 0 1.17l-.006.01-.006.01a1.19 1.19 0 0 1-2.048.004l-.008-.014-.008-.014a1.19 1.19 0 0 1 0-1.163M4 5.19c.394 0 .714.32.714.715v1.904a.714.714 0 0 1-1.428 0V5.906c0-.395.32-.715.714-.715" clip-rule="evenodd"/></g><defs><clipPath id="a"><path fill="#fff" d="M0 0h16v16H0z"/></clipPath></defs></svg>